<svg width="33" height="33" viewBox="0 0 33 33" fill="none" xmlns="http://www.w3.org/2000/svg">
<g clip-path="url(#clip0_703_199)">
<path d="M15.0342 2.72594C15.035 3.23511 15.0342 3.74427 15.0342 4.25427C15.0333 4.96677 14.8133 5.24761 14.1292 5.42594C12.5325 5.84177 11.0508 6.50427 9.78083 7.57094C9.23083 8.03261 8.75 8.57678 8.27667 9.13511C8.92167 8.68678 9.60167 8.40677 10.3892 8.45594C11.1867 8.50511 11.8525 8.82844 12.37 9.43594C13.1833 10.3909 13.2633 11.7518 12.5775 12.7976C11.9042 13.8251 10.6058 14.2984 9.43333 13.9393C8.71583 13.7201 8.1675 13.2818 7.795 12.6309C7.43 11.9909 7.35083 11.3026 7.5025 10.5801C7.46583 10.5718 7.42917 10.5643 7.39333 10.5568C7.215 11.1334 7 11.7026 6.86667 12.2893C6.46833 14.0476 6.53083 15.7934 7.0725 17.5193C7.305 18.2576 7.17583 18.5709 6.505 18.9609C6.05583 19.2218 5.6075 19.4834 5.15417 19.7368C4.54333 20.0784 3.97167 19.8701 3.72417 19.2134C2.73167 16.5743 2.615 13.8893 3.31333 11.1634C3.33917 11.0651 3.3625 10.9659 3.4 10.8134C3.20917 10.8134 3.04917 10.8109 2.88917 10.8143C2.52583 10.8209 2.16 10.8101 1.79917 10.8443C1.21167 10.8993 0.765 10.7168 0.5 10.1684V9.67011C1.43833 7.82011 2.3775 5.97094 3.31583 4.12177C3.35333 4.04761 3.3925 3.97427 3.43333 3.90177C3.80833 3.23844 4.57833 3.17427 5.05083 3.77761C5.46083 4.30094 5.85167 4.83927 6.25167 5.37011C6.31333 5.45094 6.37917 5.52761 6.45167 5.61761C7.35 4.66677 8.34083 3.86844 9.45833 3.22844C10.815 2.45094 12.2658 1.94011 13.8075 1.68927C14.5825 1.56261 15.0317 1.94761 15.0342 2.72594Z" fill="#FF782D"/>
<path d="M31.4408 10.841C30.9217 10.8452 30.4017 10.8218 29.8825 10.8118C29.7817 10.8093 29.6808 10.811 29.5475 10.811C29.6458 11.2602 29.7458 11.671 29.8258 12.0852C30.2875 14.4893 30.085 16.841 29.245 19.1385C28.9708 19.8885 28.4075 20.096 27.7175 19.7018C27.285 19.4543 26.855 19.2027 26.4225 18.9543C25.77 18.5785 25.6333 18.2527 25.8583 17.5368C26.4575 15.6302 26.4733 13.7143 25.9483 11.7935C25.835 11.3793 25.6683 10.9793 25.4825 10.5785C25.5967 11.3718 25.4908 12.1118 25.0525 12.781C24.6083 13.4577 23.9792 13.8718 23.1825 14.0177C21.9592 14.2418 20.7058 13.5885 20.1667 12.4543C19.6225 11.3093 19.9225 9.93517 20.8883 9.11184C21.7442 8.38267 23.2575 8.06184 24.6067 9.1685C24.6283 9.15017 24.6492 9.13184 24.6708 9.11434C24.3783 8.78517 24.1017 8.44017 23.7892 8.13184C22.3983 6.76267 20.71 5.9285 18.8417 5.43267C18.1125 5.23934 17.9042 4.981 17.9033 4.226V2.76017C17.905 1.93934 18.3508 1.55434 19.1583 1.69267C21.9042 2.16184 24.2683 3.37184 26.23 5.356C26.31 5.43684 26.3833 5.52517 26.4833 5.63684C26.8508 5.14934 27.1992 4.68767 27.5475 4.22517C27.66 4.076 27.7683 3.9235 27.885 3.77767C28.3633 3.17934 29.1508 3.22684 29.5 3.9035C30.4517 5.7485 31.39 7.60017 32.3167 9.45767C32.6608 10.1477 32.215 10.8343 31.4408 10.841Z" fill="#FF782D"/>
<path d="M26.5667 23.8254C24.7492 26.0079 22.4792 27.4804 19.7225 28.1896C19.6625 28.2046 19.6017 28.2204 19.5433 28.2396C19.525 28.2454 19.5117 28.2646 19.4783 28.2921C19.67 28.8621 19.8642 29.4404 20.0567 30.0179C20.3367 30.8562 19.9342 31.4112 19.0425 31.4121C17.3275 31.4137 15.6125 31.4137 13.8975 31.4121C12.9917 31.4112 12.6017 30.8579 12.8908 29.9921C13.0808 29.4237 13.2708 28.8546 13.4625 28.2796C12.925 28.1054 12.3992 27.9529 11.885 27.7654C9.675 26.9587 7.84833 25.6129 6.355 23.8037C5.90167 23.2537 6.00833 22.6429 6.62417 22.2821C7.09083 22.0096 7.55833 21.7404 8.0275 21.4729C8.60417 21.1421 8.9875 21.1971 9.43667 21.6887C10.7 23.0696 12.2083 24.0629 14.0275 24.5429C14.5942 24.6921 15.18 24.7671 15.7625 24.8446C14.05 23.9512 13.3917 22.8437 13.74 21.3954C14.0433 20.1321 15.1933 19.2404 16.4992 19.2571C17.8 19.2729 18.9233 20.1729 19.2033 21.4254C19.53 22.8846 18.8667 23.9887 17.115 24.8354C18.0442 24.7804 18.8892 24.5987 19.7092 24.2946C21.1808 23.7487 22.4183 22.8612 23.4767 21.7121C23.9592 21.1887 24.3233 21.1346 24.9333 21.4862C25.3833 21.7454 25.8342 22.0021 26.2817 22.2646C26.935 22.6479 27.0467 23.2487 26.5667 23.8254Z" fill="#FF782D"/>
</g>
<defs>
<clipPath id="clip0_703_199">
<rect width="32" height="32" fill="white" transform="translate(0.5 0.5)"/>
</clipPath>
</defs>
</svg>
