<svg width="33" height="32" viewBox="0 0 33 32" fill="none" xmlns="http://www.w3.org/2000/svg">
<g clip-path="url(#clip0_2_2737)">
<path d="M9.32667 14.3867C11.2467 18.16 14.34 21.24 18.1133 23.1733L21.0467 20.24C21.4067 19.88 21.94 19.76 22.4067 19.92C23.9 20.4133 25.5133 20.68 27.1667 20.68C27.9 20.68 28.5 21.28 28.5 22.0133V26.6667C28.5 27.4 27.9 28 27.1667 28C14.6467 28 4.5 17.8533 4.5 5.33333C4.5 4.6 5.1 4 5.83333 4H10.5C11.2333 4 11.8333 4.6 11.8333 5.33333C11.8333 7 12.1 8.6 12.5933 10.0933C12.74 10.56 12.6333 11.08 12.26 11.4533L9.32667 14.3867Z" fill="#FF782D"/>
</g>
<defs>
<clipPath id="clip0_2_2737">
<rect width="32" height="32" fill="white" transform="translate(0.5)"/>
</clipPath>
</defs>
</svg>
