<svg width="40" height="38" viewBox="0 0 40 38" fill="none" xmlns="http://www.w3.org/2000/svg">
<path d="M38.6905 13.1597C36.877 7.64282 32.1012 3.1496 26.2373 1.44345C24.1819 0.846165 22.0661 0.533447 20.0107 0.533447C15.8093 0.533447 11.7591 1.75626 8.37379 4.1451C3.35605 7.61438 0.36377 13.1597 0.36377 19.0178C0.36377 23.0559 1.72394 26.8951 4.29316 30.1085L4.61402 30.4956C12.6119 40.1424 27.4096 40.1424 35.4075 30.4956L35.7283 30.1085C39.5669 25.2741 40.6552 19.1032 38.6905 13.1597ZM20.0107 28.9709C14.1771 28.9709 9.4316 24.5063 9.4316 19.0178C9.4316 13.5294 14.1771 9.0647 20.0107 9.0647C25.8444 9.0647 30.5899 13.5294 30.5899 19.0178C30.5899 24.5063 25.8444 28.9709 20.0107 28.9709Z" fill="#FF3636"/>
</svg>
